/* XPM */
static char *result[] = {
/* columns rows colors chars-per-pixel */
"64 64 55 1 ",
"  c #222329",
". c #353535",
"X c #3C3C3C",
"o c #610101",
"O c #484848",
"+ c gray44",
"@ c #A81010",
"# c #FF3737",
"$ c #885137",
"% c #1E8B1E",
"& c #1F8D1F",
"* c #208F20",
"= c #219121",
"- c #239323",
"; c #249524",
": c #259725",
"> c #269926",
", c #269A26",
"< c #279A27",
"1 c #279B27",
"2 c #279C27",
"3 c #289D28",
"4 c #289E28",
"5 c #299F29",
"6 c #2A9F2A",
"7 c #2AA02A",
"8 c #2BA12B",
"9 c #2BA22B",
"0 c #2CA32C",
"q c #2CA42C",
"w c #2DA52D",
"e c #2DA62D",
"r c #2EA62E",
"t c #2EA72E",
"y c #2EA82E",
"u c #2FA82F",
"i c #2FA92F",
"p c #2FAA2F",
"a c #30AA30",
"s c #30AB30",
"d c #31AC31",
"f c #31AD31",
"g c #32AE32",
"h c #33AF33",
"j c #33B033",
"k c #34B134",
"l c #34B234",
"z c #36B536",
"x c #838DA2",
"c c #B6B6B6",
"v c #E8B090",
"b c #FFCFB6",
"n c #C6CDDC",
"m c #FDE2D4",
"M c gray98",
/* pixels */
"hjljkjhlzjhjhjjljkjglljkjhljlhjjhjljkjhlzjhjhjjljkjglljkjhljlhjj",
"hlkddlljlfejjklgdyljlksdjjkjhadlhlkddlljlfejjklgdyljlksdjjkjhadl",
"jgjpehjhgj1gjjhj7rjjhhd4gjjhj6gjjgjpehjhgj1gjjhj7rjjhhd4gjjhj6gj",
";pljzjq3jjljy>jljlj6qljzjy>jljjj;pljzjq3jjljy>jljlj6qljzjy>jljjj",
"ejljhldgklhjjqjlgjlejkjgldpklhjjejljhldgklhjjqjlgjlejkjgldpklhjj",
"gl0:jlhhy1pjlgl36jjgle1jjlhj<ejjgl0:jlhhy1pjlgl36jjgle1jjlhj<ejj",
"jjgplgjllqlhjljqdlhjllylgjll9jjjjjgplgjllqlhjljqdlhjllylgjll9jjj",
"glklglgljhfjjhlklhlglhldlhhjkjjlglklglgljhfjjhlklhlglhldlhhjkjjl",
"lhl65jjhlg;jjlgj30jjhly1jjlhj-sjlhl65jjhlg;jjlgj30jjhly1jjlhj-sj",
"wdljlhgykjlgl0jjjjjdpkjlggyhjlhjwdljlhgykjlgl0jjjjjdpkjlggyhjlhj",
"-jjklj9qljjjd:llhlj>djllje,ljhjj-jjklj9qljjjd:llhlj>djllje,ljhjj",
"glsyhlglftsjjglsyjlglaehljhhspjjglsyhlglftsjjglsyjlglaehljhhspjj",
"lj2,jhjjg=lglll>yjgjjp-lhlll1jjklj2,jhjjg=lglll>yjgjjp-lhlll1jjk",
"gjllhlgljlgljhjljgjglllhlgljljhjgjllhlgljlgljhjljgjglllhlgljljhj",
"ljhyejjjlf8jjljk0yjljjp6jjljk6djljhyejjjlf8jjljk0yjljjp6jjljk6dj",
"jgjdsgjghjehlggjafhjhhjehlggjqgljgjdsgjghjehlggjafhjhhjehlggjqgl",
"&gljjj31ljjld;jjjjj=qljlje1jjjlj&gljjj31ljjld;jjjjj=qljlje1jjjlj",
"djghhjhgklhjlylhfjjslhjhlhgkjgjldjghhjhgklhjlylhfjjslhjhlhgkjgjl",
"gj31jjjjp-ghlgj:3jlhj9:jhlhjoooooooojjjjp-ghlgj:3jlhj9:jhlhj=ehl",
"ljldjhhjzykjhlljjjhjjlykjhlloooooooojhhjzykjhlljjjhjjlykjhlldkjh",
"kjglilkljkpljhjhjfjkljkpljoo########ookljkpljhjhjfjkljkpljljhdhj",
"jgl70jjjhj;gjjgl3tjjgjd1hjoo########oojjhj;gjjgl3tjjgjd1hjjgl;hj",
"8pjjjh0wljljg1jlljhwejjj..OO@@@@@@@@OO..ljljg1jlljhwejjjha8jlljl",
",jlkjj9ejlglj6ljhlj4dllh..OO@@@@@@@@OO..jlglj6ljhlj4dllhjgqjlhlj",
"hju0jlhki0pjlhjwwjzglr..cc++++++++++++cc..pjlhjwwjzglr8jjhkj0ejz",
"ljuqlhjlj1jhjjl4plhjlg..cc++++++++++++cc..jhjjl4plhjlg4jgjjj:ghh",
"hlkjhjgjllhlhglhlhlhjkXXOOccccccccccccOOXXhlhglhlhlhjkjgjhkjjkhl",
"lhl06jlhjh:jjjjl6yjlhlXXOOccccccccccccOOXX:jjjjl6yjlhlw1jjjjk:jj",
"gfjjghjghjdgjpgjlshjgjXXOOOOXXOOOOXXOOOOXXdgjpgjlshjgjjaggdgjdgl",
"-dljlj,6jljld*jzjlj;ejXXOOOOXXOOOOXXOOOOXXjld*jzjlj;ejjjj7:jzjlj",
"glkdjlhjkgdjlhlgfjlh  OOOOXXbbXXXXbbXXOOOO  lhlgfjlhjkphjhljhdjl",
"jj1>jkjhd=dhjhj-4jkj  OOOOXXbbXXXXbbXXOOOO  jhj-4jkjj9>jhjhj%ehl",
"hjljkjhlzjhjhjjljkjg  OOXXbboobbbboobbXXOO  hjjljkjglljkjhljlhjj",
"hlkddlljlfejjklgdylj  OOXXbboobbbboobbXXOO  jklgdyljlksdjjkjhadl",
"jgjpehjhgj1gjjhj7rjjhh..XXmm@@mmmm@@mmXX..1gjjhj7rjjhhd4gjjhj6gj",
";pljzjq3jjljy>jljlj6ql..XXmm@@mmmm@@mmXX..ljy>jljlj6qljzjy>jljjj",
"ejljhldgklhjjqjlgjlejkjg..vvmmmmmmmmvv..klhjjqjlgjlejkjgldpklhjj",
"gl0:jlhhy1pjlgl36jjgle1j..vvmmmmmmmmvv..y1pjlgl36jjgle1jjlhj<ejj",
"jjgplgjllqlhjljqdlhjllylxxnnMMOOOOMMnnxxlqlhjljqdlhjllylgjll9jjj",
"glklglgljhfjjhlklhlglhldxxnnMMOOOOMMnnxxjhfjjhlklhlglhldlhhjkjjl",
"lhl65jjhlg;jjlgj30jjhl$$MM..nnMMMMnn..MM$$;jjlgj30jjhly1jjlhj-sj",
"wdljlhgykjlgl0jjjjjdpk$$MM..nnMMMMnn..MM$$lgl0jjjjjdpkjlggyhjlhj",
"-jjklj9qljjjd:llhlj>dj$$vvOOMM....MMOOvv$$jjd:llhlj>djllje,ljhjj",
"glsyhlglftsjjglsyjlgla$$vvOOMM....MMOOvv$$sjjglsyjlglaehljhhspjj",
"lj2,jhjjg=lglll>yjgjjp-l..++++++++++++..g=lglll>yjgjjp-lhlll1jjk",
"gjllhlgljlgljhjljgjglllh..++++++++++++..jlgljhjljgjglllhlgljljhj",
"ljhyejjjlf8jjljk0yjljjp6jj  oodjljoo  jjlf8jjljk0yjljjp6jjljk6dj",
"jgjdsgjghjehlggjafhjhhjehl  oogljgoo  jghjehlggjafhjhhjehlggjqgl",
"&gljjj31ljjld;jjjjj=qljlje1jjjlj&gljjj31ljjld;jjjjj=qljlje1jjjlj",
"djghhjhgklhjlylhfjjslhjhlhgkjgjldjghhjhgklhjlylhfjjslhjhlhgkjgjl",
"gj31jjjjp-ghlgj:3jlhj9:jhlhj=ehlgj31jjjjp-ghlgj:3jlhj9:jhlhj=ehl",
"ljldjhhjzykjhlljjjhjjlykjhlldkjhljldjhhjzykjhlljjjhjjlykjhlldkjh",
"kjglilkljkpljhjhjfjkljkpljljhdhjkjglilkljkpljhjhjfjkljkpljljhdhj",
"jgl70jjjhj;gjjgl3tjjgjd1hjjgl;hjjgl70jjjhj;gjjgl3tjjgjd1hjjgl;hj",
"8pjjjh0wljljg1jlljhwejjjha8jlljl8pjjjh0wljljg1jlljhwejjjha8jlljl",
",jlkjj9ejlglj6ljhlj4dllhjgqjlhlj,jlkjj9ejlglj6ljhlj4dllhjgqjlhlj",
"hju0jlhki0pjlhjwwjzglr8jjhkj0ejzhju0jlhki0pjlhjwwjzglr8jjhkj0ejz",
"ljuqlhjlj1jhjjl4plhjlg4jgjjj:ghhljuqlhjlj1jhjjl4plhjlg4jgjjj:ghh",
"hlkjhjgjllhlhglhlhlhjkjgjhkjjkhlhlkjhjgjllhlhglhlhlhjkjgjhkjjkhl",
"lhl06jlhjh:jjjjl6yjlhlw1jjjjk:jjlhl06jlhjh:jjjjl6yjlhlw1jjjjk:jj",
"gfjjghjghjdgjpgjlshjgjjaggdgjdglgfjjghjghjdgjpgjlshjgjjaggdgjdgl",
"-dljlj,6jljld*jzjlj;ejjjj7:jzjlj-dljlj,6jljld*jzjlj;ejjjj7:jzjlj",
"glkdjlhjkgdjlhlgfjlhjkphjhljhdjlglkdjlhjkgdjlhlgfjlhjkphjhljhdjl",
"jj1>jkjhd=dhjhj-4jkjj9>jhjhj%ehljj1>jkjhd=dhjhj-4jkjj9>jhjhj%ehl"
};
