/* XPM */
static char *result[] = {
/* columns rows colors chars-per-pixel */
"64 64 153 2 ",
"   c black",
".  c #070707",
"X  c #090401",
"o  c #0A0704",
"O  c #020A02",
"+  c #030B03",
"@  c gray5",
"#  c #110902",
"$  c #130B05",
"%  c #1A0D04",
"&  c #140E08",
"*  c #061606",
"=  c gray8",
"-  c gray9",
";  c gray10",
":  c #231105",
">  c #2B1606",
",  c #26170B",
"<  c #271A0E",
"1  c #341A07",
"2  c #361D0A",
"3  c #3D1E08",
"4  c #291D11",
"5  c #0A210A",
"6  c #0C2A0C",
"7  c #0D2C0D",
"8  c #102710",
"9  c #172E17",
"0  c #103710",
"q  c #153B15",
"w  c #3E210B",
"e  c #3D2B19",
"r  c #3F291A",
"t  c gray13",
"y  c #222222",
"u  c #272727",
"i  c gray18",
"p  c #3C3024",
"a  c #343434",
"s  c #393939",
"d  c gray23",
"f  c #452209",
"g  c #4E270B",
"h  c #502A0E",
"j  c #572B0C",
"k  c #47321D",
"l  c #602F0D",
"z  c #68340E",
"x  c #71380F",
"c  c #673E1C",
"v  c #723B12",
"b  c #743E15",
"n  c #7A3C11",
"m  c #4E3421",
"M  c #593B20",
"N  c #124112",
"B  c #134113",
"V  c #134213",
"C  c #164D16",
"Z  c #1D631D",
"A  c #1D6D1D",
"S  c #1D741D",
"D  c #215021",
"F  c #245124",
"G  c #275627",
"H  c #237823",
"J  c #247924",
"K  c #754118",
"L  c #77441B",
"P  c #634224",
"I  c #66482A",
"U  c #7A4921",
"Y  c #7B4C24",
"T  c #7E522A",
"R  c gray26",
"E  c gray27",
"W  c #484848",
"Q  c gray31",
"!  c #524F4C",
"~  c #505050",
"^  c #555555",
"/  c gray36",
"(  c #626262",
")  c #676767",
"_  c DimGray",
"`  c gray45",
"'  c #824112",
"]  c #844415",
"[  c SaddleBrown",
"{  c #8E4B19",
"}  c #91501F",
"|  c #865329",
" . c #87562C",
".. c #945625",
"X. c #975C2B",
"o. c #815830",
"O. c #835B33",
"+. c #845D36",
"@. c #9A6231",
"#. c #9D6737",
"$. c #A06D3D",
"%. c #A37343",
"&. c #1E8B1E",
"*. c #1F8D1F",
"=. c #258125",
"-. c #278527",
";. c #298F29",
":. c #219121",
">. c #239323",
",. c #249524",
"<. c #259725",
"1. c #269926",
"2. c #269A26",
"3. c #279A27",
"4. c #279B27",
"5. c #279C27",
"6. c #289D28",
"7. c #289E28",
"8. c #299F29",
"9. c #2B9D2B",
"0. c #2A9F2A",
"q. c #2C982C",
"w. c #2D992D",
"e. c #2D9A2D",
"r. c #2AA02A",
"t. c #2BA12B",
"y. c #2BA22B",
"u. c #2CA32C",
"i. c #2EA12E",
"p. c #2FA32F",
"a. c #2CA42C",
"s. c #2DA52D",
"d. c #2DA62D",
"f. c #2EA62E",
"g. c #2EA72E",
"h. c #2EA82E",
"j. c #2FA82F",
"k. c #2FA92F",
"l. c #2FAA2F",
"z. c #30A430",
"x. c #30A530",
"c. c #31A731",
"v. c #30AA30",
"b. c #30AB30",
"n. c #31AC31",
"m. c #31AD31",
"M. c #32AE32",
"N. c #33AF33",
"B. c #33B033",
"V. c #34B134",
"C. c #34B234",
"Z. c #36B536",
"A. c gray54",
/* pixels */
"N.B.C.B.V.B.N.C.Z.B.N.B.N.B.B.C.B.V.B.M.C.C.B.V.B.N.C.                + V.B.N.C.Z.B.N.B.N.B.B.C.B.V.B.M.C.C.B.V.B.N.C.B.C.N.B.B.",
"N.C.V.n.n.C.C.B.C.m.d.B.B.V.C.M.n.h.C.B.C.V.b.* + + + ( = i ( ( ( t t / + + + 7 C.m.d.B.B.V.C.M.n.h.C.B.C.V.b.n.B.B.V.B.N.v.n.C.",
"B.M.B.l.d.N.B.N.M.B.4.M.B.B.N.B.r.f.B.B.H V N O t R R _ W i a _ i a Q ( R R t + B V S M.B.B.N.B.r.f.B.B.N.N.n.7.M.B.B.N.B.0.M.B.",
",.l.C.B.Z.B.a.6.B.B.C.B.h.1.B.C.B.C.B.A F u u u d Q _ _ _ Q t R a Q _ _ _ W a u u u D ;.h.1.B.C.B.C.B.0.a.C.B.Z.B.h.1.B.C.B.B.B.",
"d.B.C.B.N.C.n.M.V.C.N.B.B.a.B.C.M.B.c.q i _ _ _ a ; ( ( ( ( ^   ^ ( ( ( ( t a _ _ _ i 0 x.a.B.C.M.B.C.d.B.V.B.M.C.n.l.V.C.N.B.B.",
"M.C.u.<.B.C.N.N.h.4.l.B.C.M.C.6.0.B.  W _ _ _ _ _ W                       Q _ _ _ _ _ R + M.C.6.0.B.B.M.C.d.4.B.B.C.N.B.3.d.B.B.",
"B.B.M.l.C.M.B.C.C.a.C.N.B.C.B.a.=.5   W _ _ _ _ a =   +.K x x x O.L x z   @ R _ _ _ i d Q 5 e.a.n.C.N.B.C.C.h.C.M.B.C.C.y.B.B.B.",
"M.C.V.C.M.C.M.C.B.N.m.B.B.N.C.J G d d u Q ( i i r g g %.} [ [ [ $...[ ' g M p i i i d W ( d D -.C.N.C.M.C.N.C.n.C.N.N.B.V.B.B.C.",
"C.N.C.0.8.B.B.N.C.M.,.B.B.C.M.C ; _ _ a i ! 4 : l [ [ %.} [ [ [ $...[ [ [ #.P : :   R _ _ _ = Z 6.u.B.B.N.C.h.4.B.B.C.N.B.>.b.B.",
"s.n.C.B.C.N.M.h.V.B.C.M.C.u.B.C ; _ _ _ d & %.{ [ [ [ %.} [ [ [ $...[ [ [ #.X.[ [ X R _ _ _ = Z B.B.B.n.l.V.B.C.M.M.h.N.B.C.N.B.",
">.B.B.V.C.B.y.a.C.B.B.B.n.<.5 d _ _ _ t 3 { %.{ [ [ [ %.} [ [ [ $...[ [ [ #.X.[ [ [ 1 u _ _ =   7 C.B.1.n.B.C.C.B.d.2.C.B.N.B.B.",
"M.C.b.h.N.C.M.C.m.g.b.B.B.M.5 d _ _ _ t 3 { %.{ [ [ [ %.} [ [ [ $...[ [ [ #.X.[ [ [ 1 u _ t R t 6 B.C.M.C.v.d.N.C.B.N.N.b.l.B.B.",
"C.B.5.2.B.N.B.B.M.:.C.M.C.C.5 t W _ d m j { %.{ [ [ [ %.} [ [ [ $...[ [ [ #.X.[ [ [ c p a i / i 6 B.M.B.B.l.>.C.N.C.C.C.4.B.B.V.",
"M.B.C.C.N.C.M.C.B.C.M.C.B.w.9 @ ; /   l [ { %.{ [ [ [ %.} [ [ [ $...[ [ [ #.X.[ [ [ @.I . _ _ a 8 q.B.M.C.C.C.N.C.M.C.B.C.B.N.B.",
"C.B.N.h.d.B.B.B.C.m.t.B.x.  ^ _ Q     l [ { %.{ [ [ [ %.} [ [ [ $...[ [ [ #.X.[ [ [ @.I . _ _ _ Q   B.C.B.B.l.0.B.B.C.B.V.0.n.B.",
"B.M.B.n.b.M.B.M.N.B.d.N.c.  ^ _ Q   n ' [ { %.{ [ [ [ %.} [ [ [ $...[ [ [ #.X.[ [ [ @.@.x @ / _ Q   N.B.N.N.B.d.N.C.M.M.B.a.M.C.",
"*.M.C.B.B.B.6.4.C.B.B.C.i.  ^ _ Q   [ [ [ { %.{ [ [ [ %.} [ [ [ $...[ [ [ #.X.[ [ [ @.@.'   ^ _ Q   B.:.a.C.B.C.B.d.4.B.B.B.C.B.",
"n.B.M.N.N.B.N.M.V.C.N.B.c.  ^ _ Q   [ [ [ { %.{ [ [ [ %.} [ [ [ $...[ [ [ #.X.[ [ [ @.@.'   ^ _ Q   B.b.C.N.B.N.C.N.M.V.B.M.B.C.",
"M.B.6.4.B.B.B.B.l.>.M.N.c.  ^ _ Q   [ [ [ { %.{ [ [ [ %.} [ [ [ $...[ [ [ #.X.[ [ [ @.@.'   ^ _ Q   C.N.B.y.<.B.N.C.N.B.:.d.N.C.",
"C.B.C.n.B.N.N.B.Z.h.V.B.z.          [ [ [ { %.{ [ [ [ %.} [ [ [ $...[ [ [ #.X.[ [ [ @.@.'           N.B.B.C.h.V.B.N.C.C.n.V.B.N.",
"V.B.M.C.k.C.V.C.B.V.l.C.x.  R Q a   [ [ [ { %.{ [ [ [ %.} [ [ [ $...[ [ [ #.X.[ [ [ @.@.'   R Q a   B.V.C.B.V.l.C.B.C.B.N.n.N.B.",
"B.M.C.r.u.B.B.B.N.B.,.M.x.  ^ _ Q   [ [ [ { %.{ [ [ [ %.} [ [ [ $...[ [ [ #.X.[ [ [ @.@.'   ^ _ Q   B.B.M.B.n.4.N.B.B.M.C.,.N.B.",
"t.l.B.B.B.N.u.s.C.B.C.B.p.  ^ _ Q   [ [ [ { %.{ [ [ [ %.} [ [ [ $...[ [ [ #.X.[ [ [ @.@.'   ^ _ Q   N.s.d.B.B.B.N.v.t.B.C.C.B.C.",
"2.B.C.V.B.B.y.d.B.C.M.C.x.  ^ _ Q   [ [ [ { %.{ [ [ [ %.} [ [ [ $...[ [ [ #.X.[ [ [ @.@.'   ^ _ Q   B.7.n.C.C.N.B.M.a.B.C.N.C.B.",
"N.B.j.u.B.C.N.V.k.u.l.B.c.  ^ _ Q   [ [ [ { %.{ [ [ [ %.} [ [ [ $...[ [ [ #.X.x # # $ & #   ^ _ Q   Z.M.C.f.t.B.B.N.V.B.u.d.B.Z.",
"C.B.j.a.C.N.B.C.B.4.B.N.x.  t u t   [ [ [ { %.{ [ [ [ %.} [ [ [ $...[ [ [ #.X.x   ) i i `   t u t   N.B.C.M.7.B.M.B.B.B.<.M.N.N.",
"N.C.V.B.N.B.M.B.C.C.N.C.z.  ; t =   [ [ [ { %.{ [ [ [ %.} [ [ [ $...[ [ [ #.X.x   ` s y `   ; t =   C.N.B.V.B.M.B.N.V.B.B.V.N.C.",
"C.N.C.u.0.B.C.N.B.N.<.B.x.  ^ _ Q   [ [ [ { %.{ [ [ [ %.} [ [ [ $...[ [ [ #.X.n X X o X X   ^ _ Q   B.C.N.C.s.4.B.B.B.B.V.<.B.B.",
"M.m.B.B.M.N.B.M.N.B.n.M.x.  ^ _ Q   [ [ [ { %.{ [ [ [ %.} [ [ [ $...[ [ [ #.X.[ [ [ @.@.'   ^ _ Q   N.B.M.B.B.v.M.M.n.M.B.n.M.C.",
">.n.C.B.C.B.2.0.B.C.B.C.i.  ^ _ Q   [ [ [ { %.{ [ [ [ %.} [ [ [ $...[ [ [ #.X.[ [ [ @.@.'   ^ _ Q   B.,.d.B.B.B.B.r.<.B.Z.B.C.B.",
"M.C.V.n.B.C.N.B.V.M.n.B.c.  ^ _ Q   [ [ [ { %.{ [ [ [ %.} [ [ [ $...[ [ [ #.X.[ [ [ @.@.'   ^ _ Q   C.N.B.V.l.N.B.N.C.B.N.n.B.C.",
"B.B.4.1.B.V.B.N.n.:.n.N.x.  R ^ R   [ [ [ { %.{ [ [ [ %.} [ [ [ $...[ [ [ #.X.[ [ [ @.@.'   R ^ R   V.B.B.y.1.B.N.B.N.B.&.d.N.C.",
"N.B.C.B.V.B.N.C.Z.B.N.B.z.          [ [ [ { %.{ [ [ [ %.} [ [ [ $...[ [ [ #.X.[ [ [ @.@.'           B.M.C.C.B.V.B.N.C.B.C.N.B.B.",
"N.C.V.n.n.C.C.B.C.m.d.B.x.  ^ ( W   [ [ [ { %.{ [ [ [ %.} [ [ [ $...[ [ [ #.X.[ [ [ @.@.'   ^ ( W   C.B.C.V.b.n.B.B.V.B.N.v.n.C.",
"B.M.B.l.d.N.B.N.M.B.4.M.x.  ^ _ Q   [ [ l 2 e 2 1 g [ %.} [ [ [ $...[ [ [ #.X.[ [ [ @.@.'   ^ _ Q   B.B.N.N.n.7.M.B.B.N.B.0.M.B.",
",.l.C.B.Z.B.a.6.B.B.C.B.9.  ^ _ Q   [ [ z >     % g [ %.} [ [ [ $...[ [ [ #.X.[ [ [ @.@.'   ^ _ Q   B.0.a.C.B.Z.B.h.1.B.C.B.B.B.",
"d.B.C.B.N.C.n.M.V.C.N.B.x.  ^ _ Q   [ [ ' ] o X f [ [ %.} [ [ [ $...[ [ [ #.X.[ [ [ @.@.'   ^ _ Q   C.d.B.V.B.M.C.n.l.V.C.N.B.B.",
"M.C.u.<.B.C.N.N.h.4.l.B.c.  ^ _ Q   [ [ g & %.{ 3 > [ %.} [ [ [ $...[ [ [ #.X.[ [ [ @.@.'   ^ _ Q   B.M.C.d.4.B.B.C.N.B.3.d.B.B.",
"B.B.M.l.C.M.B.C.C.a.C.N.x.  @ = =   [ [ g & %.{ 3 > [ %.} [ [ [ $...[ [ [ #.X.[ [ [ @.@.'   @ = =   N.B.C.C.h.C.M.B.C.C.y.B.B.B.",
"M.C.V.C.M.C.M.C.B.N.m.B.x.  i d u   [ [ n h k w f l [ %.} [ [ [ $...[ [ [ #.X.[ [ [ @.@.'   i d u   C.M.C.N.C.n.C.N.N.B.V.B.B.C.",
"C.N.C.0.8.B.B.N.C.M.,.B.x.  ^ _ Q   [ [ [ ] 4 : l [ [ %.} [ [ [ $...[ [ [ #.X.[ [ [ @.@.'   ^ _ Q   B.B.N.C.h.4.B.B.C.N.B.>.b.B.",
"s.n.C.B.C.N.M.h.V.B.C.M.c.  ^ _ Q   [ [ [ { %.{ [ [ [ %.} [ [ [ $...[ [ [ #.X.[ [ [ @.@.'   ^ _ Q   B.n.l.V.B.C.M.M.h.N.B.C.N.B.",
">.B.B.V.C.B.y.a.C.B.B.B.i.  ^ _ Q   [ [ [ { %.{ [ [ [ %.} [ [ [ $...[ [ [ #.X.[ [ [ @.@.'   ^ _ Q   B.1.n.B.C.C.B.d.2.C.B.N.B.B.",
"M.C.b.h.N.C.M.C.m.g.b.B.x.  ^ _ Q   [ [ [ { %.{ [ [ [ %.} [ [ [ $...[ [ [ #.X.[ [ [ @.@.'   ^ _ Q   C.M.C.v.d.N.C.B.N.N.b.l.B.B.",
"C.B.5.2.B.N.B.B.M.:.C.M.c.  i d i   [ [ [ { %.{ [ [ [ %.} [ [ [ $...[ [ [ #.X.[ [ [ @.@.'   i d i   M.B.B.l.>.C.N.C.C.C.4.B.B.V.",
"M.B.C.C.N.C.M.C.B.C.M.C.x.  @ @ .   [ [ [ { %.{ [ [ [ %.} [ [ [ $...[ [ [ #.X.[ [ [ @.@.'   @ @ .   B.M.C.C.C.N.C.M.C.B.C.B.N.B.",
"C.B.N.h.d.B.B.B.C.m.t.B.x.  ^ _ Q   [ [ [ { %.{ [ [ [ %.} [ [ [ $...[ [ [ #.X.[ [ [ @.@.'   ^ _ Q   B.C.B.B.l.0.B.B.C.B.V.0.n.B.",
"B.M.B.n.b.M.B.M.N.B.d.N.c.  ^ _ Q   [ [ [ { %.{ [ [ [ %.} [ [ [ $...[ [ [ #.X.[ [ [ @.@.'   ^ _ Q   N.B.N.N.B.d.N.C.M.M.B.a.M.C.",
"*.M.C.B.B.B.6.4.C.B.B.C.i.  ^ _ Q   [ [ [ { %.{ [ [ [ %.} [ [ [ $...[ [ [ #.X.[ [ [ @.@.'   ^ _ Q   B.:.a.C.B.C.B.d.4.B.B.B.C.B.",
"n.B.M.N.N.B.N.M.V.C.N.B.c.  ^ _ Q   [ [ [ { %.{ [ [ [ %.} [ [ [ $...[ [ [ #.X.[ [ [ @.@.'   ^ _ Q   B.b.C.N.B.N.C.N.M.V.B.M.B.C.",
"M.B.6.4.B.B.B.B.l.>.M.N.c.  ^ _ Q   [ [ [ { %.{ [ [ [ %.} [ [ [ $...[ [ [ #.X.[ [ [ @.@.'   ^ _ Q   C.N.B.y.<.B.N.C.N.B.:.d.N.C.",
"C.B.C.n.B.N.N.B.Z.h.V.B.z.          [ [ [ { %.{ [ [ [ %.} [ [ [ $...[ [ [ #.X.[ [ [ @.@.'           N.B.B.C.h.V.B.N.C.C.n.V.B.N.",
"V.B.M.C.k.C.V.C.B.V.l.C.x.  R Q a   [ [ [ { %.{ [ [ [ %.} [ [ [ $...[ [ [ #.X.x : : , < :   R Q a   B.V.C.B.V.l.C.B.C.B.N.n.N.B.",
"B.M.C.r.u.B.B.B.N.B.,.M.x.  ^ _ Q   [ [ [ { %.{ [ [ [ %.} [ [ [ $...[ [ [ #.X.x   ~ - y ~   ^ _ Q   B.B.M.B.n.4.N.B.B.M.C.,.N.B.",
"t.l.B.B.B.N.u.s.C.B.C.B.p.  ^ _ Q   [ [ [ { %.{ [ [ [ %.} [ [ [ $...[ [ [ #.X.x   A.E i A.  ^ _ Q   N.s.d.B.B.B.N.v.t.B.C.C.B.C.",
"2.B.C.V.B.B.y.d.B.C.M.C.x.  ^ _ Q   [ [ [ { %.{ [ [ [ %.} [ [ [ $...[ [ [ #.X.x             ^ _ Q   B.7.n.C.C.N.B.M.a.B.C.N.C.B.",
"N.B.j.u.B.C.N.V.k.u.l.B.c.  ^ _ Q   [ [ [ { %.{ [ [ [ %.} [ [ [ $...[ [ [ #.X.[ n n  .| x   ^ _ Q   Z.M.C.f.t.B.B.N.V.B.u.d.B.Z.",
"C.B.j.a.C.N.B.C.B.4.B.N.x.  t u t   [ [ [ { %.{ [ [ [ %.} [ [ [ $...[ [ [ #.X.[ [ [ @.@.'   t u t   N.B.C.M.7.B.M.B.B.B.<.M.N.N.",
"N.C.V.B.N.B.M.B.C.C.N.C.z.  ; t =   [ [ [ { %.{ [ [ [ %.} [ [ [ $...[ [ [ #.X.[ [ [ @.@.'   ; t =   C.N.B.V.B.M.B.N.V.B.B.V.N.C.",
"C.N.C.u.0.B.C.N.B.N.<.B.x.  ^ _ Q   [ [ [ { %.{ [ [ [ %.} [ [ [ $...[ [ [ #.X.[ [ [ @.@.'   ^ _ Q   B.C.N.C.s.4.B.B.B.B.V.<.B.B.",
"M.m.B.B.M.N.B.M.N.B.n.M.x.  ^ _ Q   [ [ [ { %.{ [ [ [ %.} [ [ [ $...[ [ [ #.X.[ [ [ @.@.'   ^ _ Q   N.B.M.B.B.v.M.M.n.M.B.n.M.C.",
">.n.C.B.C.B.2.0.B.C.B.C.i.  ^ _ Q   [ [ [ { %.{ [ [ [ %.} [ [ [ $...[ [ [ #.X.[ [ [ @.@.'   ^ _ Q   B.,.d.B.B.B.B.r.<.B.Z.B.C.B.",
"M.C.V.n.B.C.N.B.V.M.n.B.c.  ^ _ Q   [ [ [ { %.{ [ [ [ %.} [ [ [ $...[ [ [ #.X.[ [ [ @.@.'   ^ _ Q   C.N.B.V.l.N.B.N.C.B.N.n.B.C.",
"B.B.4.1.B.V.B.N.n.:.n.N.x.  R ^ R   x x x v +.b x x x +.L x x x o.U x x x T Y x x x Y T z   R ^ R   V.B.B.y.1.B.N.B.N.B.&.d.N.C."
};
