/* XPM */
static char *result[] = {
/* columns rows colors chars-per-pixel */
"64 64 121 2 ",
"   c black",
".  c #010000",
"X  c #010100",
"o  c #010101",
"O  c #020100",
"+  c #030100",
"@  c #020101",
"#  c #030101",
"$  c #030200",
"%  c #030201",
"&  c #030202",
"*  c gray1",
"=  c #040201",
"-  c #050201",
";  c #060301",
":  c #060302",
">  c #060401",
",  c #050402",
"<  c #070707",
"1  c #090401",
"2  c #0A0501",
"3  c #080603",
"4  c #0D0702",
"5  c #020A02",
"6  c #030B03",
"7  c gray4",
"8  c #0B0B0B",
"9  c gray5",
"0  c #120903",
"q  c #130903",
"w  c #140E08",
"e  c #061606",
"r  c #101010",
"t  c gray8",
"y  c gray10",
"u  c #0A210A",
"i  c #0C2A0C",
"p  c #0D2C0D",
"a  c #102710",
"s  c #172E17",
"d  c #103710",
"f  c #153B15",
"g  c gray13",
"h  c #272727",
"j  c gray18",
"k  c #323232",
"l  c #343434",
"z  c gray23",
"x  c #124112",
"c  c #134113",
"v  c #134213",
"b  c #164D16",
"n  c #1D631D",
"m  c #1D6D1D",
"M  c #1D741D",
"N  c #215021",
"B  c #245124",
"V  c #275627",
"C  c #237823",
"Z  c #247924",
"A  c gray26",
"S  c #484848",
"D  c #494949",
"F  c #4B4B4B",
"G  c gray30",
"H  c gray31",
"J  c #524F4C",
"K  c #555555",
"L  c gray36",
"P  c #626262",
"I  c DimGray",
"U  c #1E8B1E",
"Y  c #1F8D1F",
"T  c #258125",
"R  c #278527",
"E  c #298F29",
"W  c #219121",
"Q  c #239323",
"!  c #249524",
"~  c #259725",
"^  c #269926",
"/  c #269A26",
"(  c #279A27",
")  c #279B27",
"_  c #279C27",
"`  c #289D28",
"'  c #289E28",
"]  c #299F29",
"[  c #2B9D2B",
"{  c #2A9F2A",
"}  c #2C982C",
"|  c #2D992D",
" . c #2D9A2D",
".. c #2AA02A",
"X. c #2BA12B",
"o. c #2BA22B",
"O. c #2CA32C",
"+. c #2EA12E",
"@. c #2FA32F",
"#. c #2CA42C",
"$. c #2DA52D",
"%. c #2DA62D",
"&. c #2EA62E",
"*. c #2EA72E",
"=. c #2EA82E",
"-. c #2FA82F",
";. c #2FA92F",
":. c #2FAA2F",
">. c #30A430",
",. c #30A530",
"<. c #31A731",
"1. c #30AA30",
"2. c #30AB30",
"3. c #31AC31",
"4. c #31AD31",
"5. c #32AE32",
"6. c #33AF33",
"7. c #33B033",
"8. c #34B134",
"9. c #34B234",
"0. c #36B536",
/* pixels */
"6.7.9.7.8.7.6.9.0.7.6.7.6.7.7.9.7.8.7.5.9.9.7.8.7.6.9.                6 8.7.6.9.0.7.6.7.6.7.7.9.7.8.7.5.9.9.7.8.7.6.9.7.9.6.7.7.",
"6.9.8.3.3.9.9.7.9.4.%.7.7.8.9.5.3.=.9.7.9.8.2.e 6 6 6 P t j P P P g g L 6 6 6 p 9.4.%.7.7.8.9.5.3.=.9.7.9.8.2.3.7.7.8.7.6.1.3.9.",
"7.5.7.:.%.6.7.6.5.7.) 5.7.7.6.7...&.7.7.C v x 5 g A A I S j l I j l H P A A g 6 c v M 5.7.7.6.7...&.7.7.6.6.3.' 5.7.7.6.7.{ 5.7.",
"! :.9.7.0.7.#.` 7.7.9.7.=.^ 7.9.7.9.7.m B h h h z H I I I H g A l H I I I S l h h h N E =.^ 7.9.7.9.7.{ #.9.7.0.7.=.^ 7.9.7.7.7.",
"%.7.9.7.6.9.3.5.8.9.6.7.7.#.7.9.5.7.<.f j I I I l y P P P P K   K P P P P g l I I I j d ,.#.7.9.5.7.9.%.7.8.7.5.9.3.:.8.9.6.7.7.",
"5.9.O.~ 7.9.6.6.=.) :.7.9.5.9.` { 7.  S I I I I I S                       H I I I I I A 6 5.9.` { 7.7.5.9.%.) 7.7.9.6.7.( %.7.7.",
"7.7.5.:.9.5.7.9.9.#.9.6.7.9.7.#.T u   S I I I I l r                   .   9 A I I I j z H u  .#.3.9.6.7.9.9.=.9.5.7.9.9.o.7.7.7.",
"5.9.8.9.5.9.5.9.7.6.4.7.7.6.9.Z V z z h H P j j                         1   X j j j z S P z N R 9.6.9.5.9.6.9.3.9.6.6.7.8.7.7.9.",
"9.6.9.{ ] 7.7.6.9.5.! 7.7.9.5.b y I I l j J   ,                           &     %   A I I I t n ` O.7.7.6.9.=.) 7.7.9.6.7.Q 2.7.",
"$.3.9.7.9.6.5.=.8.7.9.5.9.O.7.b y I I I z w 3                                     o A I I I t n 7.7.7.3.:.8.7.9.5.5.=.6.7.9.6.7.",
"Q 7.7.8.9.7.o.#.9.7.7.7.3.~ u z I I I g -               #   > $                       h I I t   p 9.7.^ 3.7.9.9.7.%./ 9.7.6.7.7.",
"5.9.2.=.6.9.5.9.4.*.2.7.7.5.u z I I I g @             .             X               X h I g A g i 7.9.5.9.1.%.6.9.7.6.6.2.:.7.7.",
"9.7._ / 7.6.7.7.5.W 9.5.9.9.u g S I z %                               O               . k j L j i 7.5.7.7.:.Q 9.6.9.9.9.) 7.7.8.",
"5.7.9.9.6.9.5.9.7.9.5.9.7.| s 9 y L   :                                               X * I I l a } 7.5.9.9.9.6.9.5.9.7.9.7.6.7.",
"9.7.6.=.%.7.7.7.9.4.X.7.,.  K I H                                                       o I I I H   7.9.7.7.:.{ 7.7.9.7.8.{ 3.7.",
"7.5.7.3.2.5.7.5.6.7.%.6.<.  K I H   .                                                     7 L I H   6.7.6.6.7.%.6.9.5.5.7.#.5.9.",
"Y 5.9.7.7.7.` ) 9.7.7.9.+.  K I H                                                           K I H   7.W #.9.7.9.7.%.) 7.7.7.9.7.",
"3.7.5.6.6.7.6.5.8.9.6.7.<.  K I H                                                           K I H   7.2.9.6.7.6.9.6.5.8.7.5.7.9.",
"5.7.` ) 7.7.7.7.:.Q 5.6.<.  K I H                                                           K I H   9.6.7.o.~ 7.6.9.6.7.W %.6.9.",
"9.7.9.3.7.6.6.7.0.=.8.7.>.                                                                          6.7.7.9.=.8.7.6.9.9.3.8.7.6.",
"8.7.5.9.;.9.8.9.7.8.:.9.,.  A H l                                                           A H l   7.8.9.7.8.:.9.7.9.7.6.3.6.7.",
"7.5.9...O.7.7.7.6.7.! 5.,.  K I G                                                           K I H   7.7.5.7.3.) 6.7.7.5.9.! 6.7.",
"X.:.7.7.7.6.O.$.9.7.9.7.@.  K I D                                                           D I H   6.$.%.7.7.7.6.1.X.7.9.9.7.9.",
"/ 7.9.8.7.7.o.%.7.9.5.9.,.  K I F                                                           K I H   7.' 3.9.9.6.7.5.#.7.9.6.9.7.",
"6.7.-.O.7.9.6.8.;.O.:.7.<.  K I G                                                           K I H   0.5.9.&.X.7.7.6.8.7.O.%.7.0.",
"9.7.-.#.9.6.7.9.7.) 7.6.,.  g h g                                                           g h g   6.7.9.5.' 7.5.7.7.7.~ 5.6.6.",
"6.9.8.7.6.7.5.7.9.9.6.9.>.  y g t                                                           y g t   9.6.7.8.7.5.7.6.8.7.7.8.6.9.",
"9.6.9.O.{ 7.9.6.7.6.~ 7.,.  K I H                                                           K I H   7.9.6.9.$.) 7.7.7.7.8.~ 7.7.",
"5.4.7.7.5.6.7.5.6.7.3.5.,.  K I H                                                           K I H   6.7.5.7.7.1.5.5.3.5.7.3.5.9.",
"Q 3.9.7.9.7./ { 7.9.7.9.+.  K I H                                                           K I H   7.! %.7.7.7.7...~ 7.0.7.9.7.",
"5.9.8.3.7.9.6.7.8.5.3.7.<.  K I H                                                           K I H   9.6.7.8.:.6.7.6.9.7.6.3.7.9.",
"7.7.) ^ 7.8.7.6.3.W 3.6.,.  A K A                                                           A K A   8.7.7.o.^ 7.6.7.6.7.U %.6.9.",
"6.7.9.7.8.7.6.9.0.7.6.7.>.                                                                          7.5.9.9.7.8.7.6.9.7.9.6.7.7.",
"6.9.8.3.3.9.9.7.9.4.%.7.,.  K P S                                                           K P S   9.7.9.8.2.3.7.7.8.7.6.1.3.9.",
"7.5.7.:.%.6.7.6.5.7.) 5.,.  K I H                                                           K I H   7.7.6.6.3.' 5.7.7.6.7.{ 5.7.",
"! :.9.7.0.7.#.` 7.7.9.7.[   K I H                                                           K I H   7.{ #.9.7.0.7.=.^ 7.9.7.7.7.",
"%.7.9.7.6.9.3.5.8.9.6.7.,.  K I H                                                           K I H   9.%.7.8.7.5.9.3.:.8.9.6.7.7.",
"5.9.O.~ 7.9.6.6.=.) :.7.<.  K I H                                                           K I H   7.5.9.%.) 7.7.9.6.7.( %.7.7.",
"7.7.5.:.9.5.7.9.9.#.9.6.,.  9 t t                                                           9 t t   6.7.9.9.=.9.5.7.9.9.o.7.7.7.",
"5.9.8.9.5.9.5.9.7.6.4.7.,.  j z h                                                           j z h   9.5.9.6.9.3.9.6.6.7.8.7.7.9.",
"9.6.9.{ ] 7.7.6.9.5.! 7.,.  K I H                                                           K I H   7.7.6.9.=.) 7.7.9.6.7.Q 2.7.",
"$.3.9.7.9.6.5.=.8.7.9.5.<.  K I H                                                           K I H   7.3.:.8.7.9.5.5.=.6.7.9.6.7.",
"Q 7.7.8.9.7.o.#.9.7.7.7.+.  K I H   =                                                       K I H   7.^ 3.7.9.9.7.%./ 9.7.6.7.7.",
"5.9.2.=.6.9.5.9.4.*.2.7.,.  K I H   $                                                       K I H   9.5.9.1.%.6.9.7.6.6.2.:.7.7.",
"9.7._ / 7.6.7.7.5.W 9.5.<.  j z j                                                           j z j   5.7.7.:.Q 9.6.9.9.9.) 7.7.8.",
"5.7.9.9.6.9.5.9.7.9.5.9.,.  9 9 <                                                           9 9 <   7.5.9.9.9.6.9.5.9.7.9.7.6.7.",
"9.7.6.=.%.7.7.7.9.4.X.7.,.  K I H   X                                                       K I H   7.9.7.7.:.{ 7.7.9.7.8.{ 3.7.",
"7.5.7.3.2.5.7.5.6.7.%.6.<.  K I H   +                                                       K I H   6.7.6.6.7.%.6.9.5.5.7.#.5.9.",
"Y 5.9.7.7.7.` ) 9.7.7.9.+.  K I H   =                                                       K I H   7.W #.9.7.9.7.%.) 7.7.7.9.7.",
"3.7.5.6.6.7.6.5.8.9.6.7.<.  K I H   ;                                                       K I H   7.2.9.6.7.6.9.6.5.8.7.5.7.9.",
"5.7.` ) 7.7.7.7.:.Q 5.6.<.  K I H   2                                                       K I H   9.6.7.o.~ 7.6.9.6.7.W %.6.9.",
"9.7.9.3.7.6.6.7.0.=.8.7.>.          ;                                         -                     6.7.7.9.=.8.7.6.9.9.3.8.7.6.",
"8.7.5.9.;.9.8.9.7.8.:.9.,.  A H l   O                                                       A H l   7.8.9.7.8.:.9.7.9.7.6.3.6.7.",
"7.5.9...O.7.7.7.6.7.! 5.,.  K I H                                                       *   K I H   7.7.5.7.3.) 6.7.7.5.9.! 6.7.",
"X.:.7.7.7.6.O.$.9.7.9.7.@.  K I H                                                       8   K I H   6.$.%.7.7.7.6.1.X.7.9.9.7.9.",
"/ 7.9.8.7.7.o.%.7.9.5.9.,.  K I H                                                           K I H   7.' 3.9.9.6.7.5.#.7.9.6.9.7.",
"6.7.-.O.7.9.6.8.;.O.:.7.<.  K I H                                                           K I H   0.5.9.&.X.7.7.6.8.7.O.%.7.0.",
"9.7.-.#.9.6.7.9.7.) 7.6.,.  g h g                                                           g h g   6.7.9.5.' 7.5.7.7.7.~ 5.6.6.",
"6.9.8.7.6.7.5.7.9.9.6.9.>.  y g t                                                           y g t   9.6.7.8.7.5.7.6.8.7.7.8.6.9.",
"9.6.9.O.{ 7.9.6.7.6.~ 7.,.  K I H                                                           K I H   7.9.6.9.$.) 7.7.7.7.8.~ 7.7.",
"5.4.7.7.5.6.7.5.6.7.3.5.,.  K I H   =                                                       K I H   6.7.5.7.7.1.5.5.3.5.7.3.5.9.",
"Q 3.9.7.9.7./ { 7.9.7.9.+.  K I H   4                                                       K I H   7.! %.7.7.7.7...~ 7.0.7.9.7.",
"5.9.8.3.7.9.6.7.8.5.3.7.<.  K I H   0                                                       K I H   9.6.7.8.:.6.7.6.9.7.6.3.7.9.",
"7.7.) ^ 7.8.7.6.3.W 3.6.,.  A K A   q                                                       A K A   8.7.7.o.^ 7.6.7.6.7.U %.6.9."
};
