/* XPM */
static char *_505bcd3182f41b5928210c98747ce71AHiz4cSIAp4gf1MV[] = {
/* columns rows colors chars-per-pixel */
"64 64 202 2 ",
"   c #010101",
".  c #0A0E0A",
"X  c #131313",
"o  c #1B291B",
"O  c #182318",
"+  c #26260B",
"@  c #36360F",
"#  c #353617",
"$  c #312D14",
"%  c #2B2D2B",
"&  c #262A24",
"*  c #263526",
"=  c #2C342C",
"-  c #2A3823",
";  c #32312C",
":  c #303530",
">  c #453C0C",
",  c #473F16",
"<  c #3A5913",
"1  c #2F482F",
"2  c #3A4726",
"3  c #2F512F",
"4  c #344934",
"5  c #3B4938",
"6  c #3D5E3D",
"7  c #3B563B",
"8  c #31562A",
"9  c #2B642B",
"0  c #3B623B",
"q  c #3D683D",
"w  c #37602A",
"e  c #4B450B",
"r  c #544809",
"t  c #5B4E0A",
"y  c #554708",
"u  c #41500F",
"i  c #5C540E",
"p  c #4C4410",
"a  c #4D4E17",
"s  c #594E10",
"d  c #524B17",
"f  c #5D5411",
"g  c #5E5A1F",
"h  c #465B18",
"j  c #695808",
"k  c #615E1C",
"l  c #6E640A",
"z  c #73650B",
"x  c #7C6602",
"c  c #69661B",
"v  c #786D17",
"b  c #7A751A",
"n  c #45492A",
"m  c #44522C",
"M  c #545826",
"N  c #434E31",
"B  c #4E4C35",
"V  c #495436",
"C  c #4A563A",
"Z  c #515D31",
"A  c #655D2C",
"S  c #615933",
"D  c #6A6A36",
"F  c #6F6F2D",
"G  c #475743",
"H  c #505750",
"J  c #436C43",
"K  c #437B43",
"L  c #506050",
"P  c #5C7D5C",
"I  c #527F52",
"U  c #777743",
"Y  c #6D7160",
"T  c #7E7A68",
"R  c #846D04",
"E  c #9A7E02",
"W  c #907601",
"Q  c #806D16",
"!  c #877912",
"~  c #8A7202",
"^  c #837E6B",
"/  c #1F8C1F",
"(  c #208F20",
")  c #249524",
"_  c #279A27",
"`  c #299E29",
"'  c #2CA42C",
"]  c #2FA92F",
"[  c #32AE32",
"{  c #39AF39",
"}  c #33B133",
"|  c #4F894F",
" . c #488648",
".. c #4D984D",
"X. c #548D54",
"o. c #5B835B",
"O. c #538053",
"+. c #5B935B",
"@. c #599B59",
"#. c #718B5E",
"$. c #43AB43",
"%. c #4CAD4C",
"&. c #43A343",
"*. c #4CB24C",
"=. c #43B043",
"-. c #52AC52",
";. c #59A759",
":. c #50B450",
">. c #5AB75A",
",. c #648663",
"<. c #6E936B",
"1. c #60A560",
"2. c #64BD64",
"3. c #75B775",
"4. c #5DC15D",
"5. c #99840D",
"6. c #9D8507",
"7. c #9D8511",
"8. c #A38601",
"9. c #AA8C01",
"0. c #AA9307",
"q. c #B49501",
"w. c #B99A02",
"e. c #A39212",
"r. c #A99E18",
"t. c #B29E10",
"y. c #B8A40F",
"u. c #B7A615",
"i. c #9C9C25",
"p. c #989237",
"a. c #A09A39",
"s. c #B5AB29",
"d. c #BCB723",
"f. c #B1AE30",
"g. c #AEB13E",
"h. c #B5B83C",
"j. c #B4B636",
"k. c #A7A72C",
"l. c #CAA702",
"z. c #C6A806",
"x. c #CFB50F",
"c. c #D5BB0F",
"v. c #D9B909",
"b. c #D7B607",
"n. c #C1AE14",
"m. c #CAB513",
"M. c #C5B618",
"N. c #D7BF12",
"B. c #C3BA2D",
"V. c #DCC10F",
"C. c #DDC715",
"Z. c #E3CC17",
"A. c #E5D41E",
"S. c #E8D71E",
"D. c #CFCD2B",
"F. c #D4CC26",
"G. c #D3C725",
"H. c #DDD425",
"J. c #D8D52C",
"K. c #CAC93F",
"L. c #E0D523",
"P. c #E5DB26",
"I. c #EADC23",
"U. c #E9DF28",
"Y. c #E7DE28",
"T. c #DFE23D",
"R. c #EDE52A",
"E. c #E9E42D",
"W. c #F1EB2D",
"Q. c #E2E238",
"!. c #E9EA39",
"~. c #F3EF30",
"^. c #EFF03F",
"/. c #F7F636",
"(. c #F7F738",
"). c #F8F63B",
"_. c #919B56",
"`. c #A59E44",
"'. c #B2A84C",
"]. c #95AA6A",
"[. c #B8CB58",
"{. c #B8C44F",
"}. c #C4CE49",
"|. c #D7DE45",
" X c #D4DC57",
".X c #C8D34B",
"XX c #DDE343",
"oX c #E6EA41",
"OX c #F8F544",
"+X c #F9F34C",
"@X c #FBF15C",
"#X c #FCEF6B",
"$X c #FCEF67",
"%X c #FBF061",
"&X c #FEED7B",
"*X c #FDED76",
"=X c #85AE85",
"-X c #97A395",
";X c #A3AE9C",
":X c #D5C680",
">X c #FFEA88",
",X c #E8E588",
/* pixels */
"[ } } } } } [ } } } [ } [ } } } [ } [ [ } } [ } [ [ } } } } } [ } [ } } } } [ } } } } } [ } } } } } [ [ } } } } [ [ } } } [ [ [ ",
"} } } [ [ } } } } } ' } } } } [ [ ] } } } } ] [ } } } } [ ] [ } } } } [ [ } } } } [ ] [ } } } [ [ ] } [ } } [ [ } } } } } [ [ } ",
"[ [ [ ] ] [ } [ } } _ [ } [ } } ' ' [ [ } [ [ ' [ [ } } } ' [ } } [ } ] ' } } [ [ } _ [ } [ [ } ' ' } } [ [ [ ' [ [ } [ [ ' [ } ",
") [ } } } } ' _ } } } } ] _ } } [ } [ ' ] } [ } } ] _ [ } } [ [ ) ] } } } } ' _ [ } } } ] _ } } [ } [ ' ' } [ } } ] _ [ } } } [ ",
"' } } } [ } [ [ } } [ } [ ' } } [ [ [ ] [ } [ [ } [ ] } } } } } ' } } [ } } } [ } } } } } ' [ } [ [ } ] [ } [ [ } [ [ } } [ [ [ ",
"[ } ' _ } } } } ] _ ] } } [ } ` ' } [ [ } ] _ } [ } } } _ ] [ } } } ' _ } } [ } ] _ ] } } [ } ` ' [ } [ } ] _ } } } [ } _ ] [ } ",
"} } [ ] } [ } } } ' } [ } } } ' [ } } } } } ] } [ } } } ' } [ } } } } ] } [ } } } ' } } } } } ' [ } } [ } } ] } [ } } } ' [ } } ",
"[ } } } } } [ } } } [ } } } } } } } } } } } } [ } } } [ } [ } } [ } } } [ } } } } [ [ [ } } } } [ [ } [ } } } [ } [ [ [ } } } } ",
"} [ } ` _ } } [ } [ ) } } } [ } _ ' } [ } } ] _ [ } } } } ( [ } } [ } ' ' [ [ [ } [ ) } } } [ } ' ' [ [ [ } ] _ } } } [ } ) ] } ",
"' [ } } } [ [ ] } } } [ } ' } } [ } } [ [ } } } [ [ ] [ } } [ } ' [ } [ } } [ ] } } } [ } ' } } [ } } [ ] } } } [ [ ] [ } } [ } ",
") } } } } } ' ' } } } } [ _ } } } } [ _ [ [ } } } ' _ } } } } [ ) } } } } } ' ' } } } } [ ) } } [ [ [ _ [ } } } } ] _ } } } } } ",
"[ } [ ] } } [ } [ ' [ [ [ } } ] ] } } [ [ ] ] [ } } [ [ [ ] } } [ } ] ] [ } [ } [ ] ] } } [ } [ ] [ } [ } [ ] } } } [ [ ] ] [ } ",
"} } _ _ } [ } } [ ) } [ } } } _ ] [ [ [ } [ ( } } } } } _ [ } } } } ` _ [ } } } [ ( } [ } } } _ ] } [ [ } ] ) } } } } } ' [ } } ",
"} } } } } } [ } } } [ } } [ } } [ [ } [ } } } [ } [ } } [ [ } [ [ } } } } } [ } } } [ } } } } } [ [ } [ } } } } } } } } [ [ [ } ",
"} } } ] ' } } } } ] ' } } } } } ' ] } } } } ] ' } } } } [ %.I &   O O.-.' } } [ } [ ' [ } } } } ' ] } } [ } ] ' } } } } [ ' [ [ ",
"} [ } ] ] [ } [ } } ' [ } [ [ } ] [ } [ } [ } ' } } [ } %. .2 z 9.j - | =.[ } [ } } ' [ } [ [ } ] [ [ } [ [ [ ] [ } [ [ [ ' [ } ",
"/ } } } } } _ _ } } } } [ _ } } [ } } ) ' } } } } ' _ *.| m z M.I.m.j N X.*._ _ } } } } [ ) } } [ [ } ( ' } } } } ' ' [ [ [ } } ",
"] } [ } } } } [ } } [ } } ' } [ [ } [ [ [ [ } } } } *.| Z c u.R./.W.u.j m | *.] } } } } } ] } } [ } } ] } [ } [ } } [ } [ [ } } ",
"[ } _ _ [ } } } [ ) [ [ } [ } _ _ [ } [ } ' _ [ [ } @.C > 5.P./.)./.I.8.> 7 ;.[ ] ) [ [ } [ } ) ' [ } } } ' ) } } } } } ( ] [ } ",
"} } } [ } } [ [ } ] } [ [ } } } } } } } } } ' } } [ +.V j t.E./././.R.n.t 5 @.[ { ] } } } } } } [ } } } } } ] } } [ } } [ } } } ",
"} [ [ } ] } } } } } [ } } } } } } ] } } } [ } ] } >.O.M e.L./././././.R.6.a o.4.[ } ] } } [ } } [ ] } } } } [ ] } [ } [ [ [ [ } ",
"} [ } ' ' [ } } } } ) [ [ } [ } ' ' } } [ } [ _ } ..4 s t.R./././././.R.y.i 4 @.[ } ) } } } [ } ' ] [ [ [ } ] ' } } } [ } ) [ [ ",
"' ] } } } [ ' ' } } } } [ _ } } } } } ' ' [ } } >.q f e.L./././././././.P.e.a q 4.} } } [ _ } } [ [ [ ' ' } } } [ ] ' [ } } } } ",
"_ [ } } } } ' ' } } [ } } ` } } } } ] ' *. .9 9 0 * j n.W./././././././.R.M.j O 0 9 9  .:.' } } [ } } ' ] } } } } [ ] } } } } } ",
"[ } ] ' } } } } [ ' [ [ } [ } ' >.1.X.K J 2 f l l b r.H.~././././.(./././.H.r.v l l i 2 K K  .+.2.} } [ [ ] ' [ } [ } } ' ' [ } ",
"} } ' ' } [ } } [ _ [ [ } } } ` =XL M k c b r.m.m.F.Q.~././././././././././.E.F.m.m.t.b c k M H =X} } } } ] ' [ [ } [ } _ [ } } ",
"} } } } [ } [ } } } [ } [ [ } [ H d ! t.M.F.R.W.~.~./././././.OX+XOX/./././././.~.W.R.J.M.t.! p H [ } } } } [ [ } [ } } [ } } } ",
"} [ } ' ` } } [ } [ _ } } } } } X ~ M.Y.W./.)././././.!.|.oXoX%X*X@XoXXXT.!././././././.W.E.M.~ X ] } } } } ' _ } [ } } } _ [ } ",
"[ [ } [ [ [ } [ [ } [ [ [ ] [ } . ~ H././.(././././.).K._.]. X#X>X*X X]._.K././././././././.H.8.  [ } } [ [ [ [ ] [ [ [ } [ [ } ",
") [ } [ } } _ ` } } [ [ [ ( [ } = > d./././././././.+X'.Y -X,X>X>X>X,X;XY `.+X/././././././.d.e = } [ _ ] } } } [ ' _ [ } } } } ",
"[ } } [ } } } } } [ [ [ } [ } [ <.o F B.U.~././././.OXa.V T  X>X>X>X:X_.B p.OX/././././.U.B.F X <.[ } } [ } ] [ [ } } } [ [ } } ",
"[ [ ` _ } } } [ [ ) [ [ } [ } _ >.6 % v m.S.I././././.i.+ $ '.>X>X&X'.$ + i././././.I.S.x.Q % 3 >.} } } [ ' _ } } [ } [ / ] } } ",
"} } } [ } } } } } } [ } } } } } } @.5 p E l.v.S./././.k.$ @ f.$X>X#Xf.# # i.(.(./.I.b.l.E p 5 @.} } } [ } } } } } } } } } } } } ",
"[ } } [ [ } } } } [ ' } } } } [ ] *.+.C r E l.v.~././.'.C N j.@X*X$Xh.N C g././.R.v.l.E t V @.:.[ ' } } } } [ ] } } } } [ ] [ } ",
"} [ } [ ' [ } } } } _ } [ } } } ' ' *.@.5 i E l.R./.).{.<.#..XOX+XOX}.#.,.{.(./.R.l.E j V @.*.[ ' ' } } [ } [ ' [ } [ [ } ` [ [ ",
"_ ] } } } } ' _ } } } } ' _ } } } } [ &.+.2 y y.W./.).oX}.[.oX/.~.).!..X[.XX/./.W.w.p m +...[ [ [ } } ` ' } [ } [ ] _ } } [ } } ",
"' } } } } } [ [ } } } } } ' } } [ } } ' *.0 + u.W./././././.(./././././.).(././.~.m.+ 7 *.' [ } [ } } ' } } } } } [ ] } } [ } } ",
"[ } ' _ } } [ [ ] _ ] [ } [ } ` ` } } [ } w e D././././././././././.(./.).(./.(./.J.p 8 } [ } ` ` } } [ } ' _ } } } } } ` ' } } ",
"} } [ ' } [ } } } ' } } [ } [ ' [ } [ } } < 0.R././././.(././././.).(././././././.!.9.< { } } ' [ } } } } } ] } [ } } } ' } [ } ",
"[ } } } } } [ } } [ [ } } } } } } } } [ ..h m.W./././././././././././././.(./././.W.z.< -.{ } } } [ } [ } } } [ } [ [ } [ } } } ",
"} } } ' ` } } [ } [ _ } [ } [ } ` ' } -.6 M J./././././.~.W.W.~.~.~.~./././././././.J.d 6 -.[ } ` ' } [ } } ] ` } } } } } ) ] } ",
"' [ } } } [ [ ] } } [ [ } ' } } } [ [ +.: D Q./././././.R.Z.N.c.c.c.V.C.R./././././.Q.D : ,.} } [ [ } [ ] } } } [ [ ] [ } } [ } ",
") } [ } } } ' ' } } [ } [ _ } } [ } } P % U Q././././.R.C.z.w.R y x q.l.Z.R./.)././.Q.U % P } } [ } } _ [ } } } } ' _ } } [ } [ ",
"[ } ] ] [ } [ } [ ' [ } } [ } ] ] } } ,.% D Q././.P.A.V.0.x j , & # t x q.c.L.U./.~.E.^ % ,.} [ ] } } [ } ] ' } } } [ } ] ] } } ",
"} } _ _ } } } } [ ) } [ } } } _ [ } [ +.= A G.U.L.s.E R j n G ,.<.,.G # t x 8.u.A.S.F.D = +.} _ ] } [ [ } ] ) } } } } } ` } } } ",
"} } } } [ } [ } } } [ } } [ [ } [ [ } -.q @ 8.w.8.A ; & 1 P 3.:.[ [ $...8 o % Z 8.w.8.p q -.} } } [ } [ } } } [ } } } } } } [ [ ",
"} } [ ] ' } } } } [ ' } } } [ } ' ' } } >.6 .       * +.2.$.[ [ { } [ ' $.+.*       . 7 >.} [ } ' ] } } } } ] ' } } } } } ` [ } ",
"} [ } [ ] [ [ [ [ [ ' } } } [ [ [ [ [ [ [ [ [ ' [ [ [ [ [ ' [ } } } } [ [ [ [ [ } } ' } } [ [ } ] [ [ } } [ [ ' [ } [ [ } ' [ } ",
"/ [ } } } } _ _ } } } } [ ) [ } } [ } ( ' } [ } } ' ` [ [ } } } / [ } } } } _ _ } } } } [ ) [ } [ [ } ( ' } } } } ' ` } [ } } } ",
"[ } [ [ [ } } [ } } [ } } ] } [ [ [ } ] } } } } } } [ } [ [ } } [ } [ [ [ } } [ } } } } } ] } } [ } [ [ } [ } [ } } [ } } [ } } ",
"[ } _ _ } [ [ } ] _ [ [ } [ } _ ` } } [ } ' _ } } } [ } ) ' } } [ [ ` ` } } } [ ] ) [ [ } [ } ) ` } } } } ' ) } } } } } ) ' [ } ",
"} } } [ } [ } } } ] } } } } } [ [ } } } } } ' } } } } } [ } } [ } } } ] } [ } } { ] } } } } } } [ } [ } } } ] } } [ } } ] } } } ",
"} } [ } ] } } } } } ] } } [ } [ [ [ } } } } } ] } } } } [ [ [ } } } [ } ] } } } } } ] } } [ } } } [ [ } } } } ] } } } [ [ ] [ } ",
"} [ } ' ' } } } [ [ _ [ } } [ } ` ] [ } [ [ [ _ [ } } [ } ) } } } [ } ' ' } } [ } } ) } [ } [ } ` ' } } [ } [ _ [ } } [ } _ [ } ",
"' ] } } } [ ' ' } } } } [ _ } } } } } ' ' } } } [ ] ' } } } } } ' ] [ } } [ ' ' } } } } [ _ } } } } } ' ' } } } } [ ' } } } } } ",
") } } } } [ ' ' } } [ } [ ' } } [ } } ` [ } } [ } [ ' [ } } } } _ } } } } } ' ' } } } } [ ' } } [ } } ` [ } } [ [ [ ' } } } } } ",
"[ [ ] ' } } } } ] ' ] } } [ } ' ' } } } } ] ' [ } [ } [ ' ' } } [ [ ] ' [ } [ } ] ' ] } } } } ' ] } } [ } ' ' } [ [ } } ' ' [ } ",
"} [ ] ' } [ } } } _ } [ } } } ` ] } } } } [ ` } [ } } } _ [ } } } } ] ' } } } } } ` [ [ } } } ` ] } } } } [ _ } [ } } [ _ [ [ } ",
"} } } } } } [ } } } } } } [ } } } } } [ } } } [ } [ } } } } } } [ } } } [ } [ } } } } } [ [ } } } } } } } } } [ } [ } } [ [ } } ",
"} } } ' ` } } [ } [ _ [ } } } } ` ] } } [ } ' ` [ } } } } ) } } } } } ' ` } } } } } ) } } [ } } ` ] } } } } ' _ [ } } } } _ } } ",
"[ [ [ [ [ } } [ } } [ [ [ ] [ } } [ [ } [ } } ] [ [ ] [ } [ [ } [ [ } [ [ } } [ [ } [ [ } ] } } } [ [ } [ } } ] [ [ [ [ } [ } } ",
") [ } } } } _ ` } } [ } [ ( } } } } } ) ' } } } } ' ) [ { [ } } ) [ } [ } } _ ` } } [ } [ ( } } } } } ) ' } } [ [ ' ) } { } } } ",
"[ } } [ } } [ } } [ [ [ } [ } } [ [ } [ } } ] [ } [ } } [ [ } } [ } } [ } } [ } [ [ [ } } [ } [ [ } } } } } ] [ [ [ } } } [ } } ",
"} [ _ _ [ } } [ ] ) [ [ } } [ ) ` } } } [ ' _ } [ } } } ( ' [ } } [ _ _ } } } [ [ ( [ [ } [ [ ) ` [ } } [ ' _ } [ } [ } / ' } } "
};
