/* XPM */
static char *result[] = {
/* columns rows colors chars-per-pixel */
"64 64 231 2 ",
"   c #3A2B0A",
".  c #363A06",
"X  c #46340C",
"o  c #52380E",
"O  c #5E3E10",
"+  c #1E4401",
"@  c #204601",
"#  c #254C01",
"$  c #2C4F03",
"%  c #2C5401",
"&  c #2F5806",
"*  c #335C01",
"=  c #375907",
"-  c #335B10",
";  c #1E741A",
":  c #3B6402",
">  c #3E6902",
",  c #366C0C",
"<  c #376609",
"1  c #39710E",
"2  c #2A6B1B",
"3  c #286C19",
"4  c #3A6B12",
"5  c #366818",
"6  c #2C741B",
"7  c #297A1C",
"8  c #347B1B",
"9  c #3A7716",
"0  c #2F670B",
"q  c #2B7D22",
"w  c #435E08",
"e  c #4D5318",
"r  c #4C5A18",
"t  c #535015",
"y  c #654312",
"u  c #6A4612",
"i  c #734B13",
"p  c #7A5613",
"a  c #68500F",
"s  c #426D02",
"d  c #4A6E05",
"f  c #456309",
"g  c #4B6B0B",
"h  c #456A0A",
"j  c #467203",
"k  c #4A7502",
"l  c #4D7A03",
"z  c #447409",
"x  c #4C7309",
"c  c #467909",
"v  c #4A7D09",
"b  c #527606",
"n  c #507C02",
"m  c #53730C",
"M  c #557A0A",
"N  c #5A7D0C",
"B  c #466814",
"V  c #487B14",
"C  c #566E0C",
"Z  c #6B6C0F",
"A  c #815F13",
"S  c #846413",
"D  c #8A6813",
"F  c #997715",
"G  c #926E16",
"H  c #A37C19",
"J  c #1F8C1F",
"K  c #39811E",
"L  c #20821E",
"P  c #2C8523",
"I  c #238C22",
"U  c #2C8B27",
"Y  c #238321",
"T  c #368D23",
"R  c #368721",
"E  c #249524",
"W  c #279A27",
"Q  c #2C9329",
"!  c #2A9E2A",
"~  c #289226",
"^  c #309128",
"/  c #30982C",
"(  c #2CA42C",
")  c #2FA92F",
"_  c #30A530",
"`  c #32AE32",
"'  c #33B133",
"]  c #4E8109",
"[  c #548304",
"{  c #568A02",
"}  c #5A8C04",
"|  c #528409",
" . c #5C830B",
".. c #568A0B",
"X. c #5C8C0B",
"o. c #5D8606",
"O. c #5A9402",
"+. c #5D9B02",
"@. c #5D910B",
"#. c #478717",
"$. c #578914",
"%. c #58971B",
"&. c #62840F",
"*. c #628D0C",
"=. c #6A8E0D",
"-. c #618B06",
";. c #63940C",
":. c #6B940B",
">. c #669A0C",
",. c #6A9E0D",
"<. c #689706",
"1. c #749A0E",
"2. c #678B10",
"3. c #698E10",
"4. c #6C9411",
"5. c #6D9913",
"6. c #779611",
"7. c #7B9D12",
"8. c #789912",
"9. c #61A302",
"0. c #64AA02",
"q. c #6DA30D",
"w. c #6AA507",
"e. c #72A50D",
"r. c #73AB0C",
"t. c #78AB0E",
"y. c #75AA05",
"u. c #67B202",
"i. c #69B701",
"p. c #6CBC01",
"a. c #7AB405",
"s. c #77B10B",
"d. c #7BB40C",
"f. c #7DB90B",
"g. c #77B706",
"h. c #76A410",
"j. c #7CA412",
"k. c #7BAC10",
"l. c #77A914",
"z. c #7EB311",
"x. c #7FBA18",
"c. c #68A51A",
"v. c #6EC101",
"b. c #77C604",
"n. c #9E8011",
"m. c #A28214",
"M. c #A98718",
"N. c #B18E1B",
"B. c #AE9217",
"V. c #B3931A",
"C. c #82AB0C",
"Z. c #83B50D",
"A. c #82BD0C",
"S. c #8DBE0D",
"D. c #81BD03",
"F. c #82AB13",
"G. c #85AA14",
"H. c #83B312",
"J. c #8BB414",
"K. c #8ABA14",
"L. c #87B916",
"P. c #93BB15",
"I. c #83C405",
"U. c #86C906",
"Y. c #8ACD02",
"T. c #85C20B",
"R. c #8BC30B",
"E. c #8CCB0A",
"W. c #9BCC0D",
"Q. c #93C90C",
"!. c #8ED10A",
"~. c #8DD303",
"^. c #92DB02",
"/. c #93D60A",
"(. c #9CD40B",
"). c #98DC0A",
"_. c #8EC416",
"`. c #8FC818",
"'. c #94C114",
"]. c #9BC313",
"[. c #94CC16",
"{. c #9DCB13",
"}. c #95CE19",
"|. c #9CCB1B",
" X c #96C51B",
".X c #9CD315",
"XX c #9BD51A",
"oX c #9FD818",
"OX c #97D017",
"+X c #A4DB0A",
"@X c #A8D80D",
"#X c #A2CB11",
"$X c #A4D412",
"%X c #ABD412",
"&X c #A5DB16",
"*X c #A9DE15",
"=X c #A2DA1A",
"-X c #A2D51D",
";X c #B3DA11",
":X c #96E202",
">X c #99E601",
",X c #9CEB00",
"<X c #9CE409",
"1X c #9FE809",
"2X c #ADE209",
"3X c #A2EB09",
"4X c #ABE80B",
"5X c #B2E30B",
"6X c #BBEB0D",
"7X c #B6E90E",
"8X c #AEF10A",
"9X c #ADE116",
"0X c #A5E01E",
"qX c #B4E515",
"wX c #B8E714",
"eX c #BCEA13",
"rX c #B7E911",
"tX c #ABE320",
"yX c #AEEA21",
"uX c #B2ED22",
"iX c #B6F324",
"pX c #C4E90E",
"aX c #C3F60E",
"sX c #C3ED13",
"dX c #C8EF12",
"fX c #C2E110",
"gX c #C6F112",
"hX c #CBF212",
"jX c #D2F511",
"kX c #D5F911",
"lX c #D8F70F",
/* pixels */
"` ' ' ' ' ' ` ' ' ' ' ' ` ' ` ' ' ' ' ` ' ' ' ' ' ` ' ' ' ` ' ' ` ' _ L.8./ ' ' ' ' ' ' ' ' ' ' ' ' ` ` ' ' ' ' ` ` ' ' ' ` ` ' ",
"' ' ' ` ` ' ' ' ' ` ( ' ' ' ' ` ` ( ' ' ' ' ) ` ' ' ' ' ` ) ` ' ` ' %.iX XV ' ' ' ` ( ' ' ' ' ` ` ) ' ' ' ' ` ` ` ' ' ' ' ` ` ' ",
"` ` ` ) ) ' ' ' ' ' W ` ` ' ' ' ( ( ` ` ' ' ` ! ` ' ' ` ' ( ' ' ' P uX=X_.j./ ` ` ' W ` ` ` ` ' ( ) ' ' ` ' ` ( ` ` ' ` ` ( ` ` ",
"E ` ' ' ' ` ( W ' ' ' ' ) W ' ' ' ' ' ( ( ' ' ' ' ( W ' ( ) K x._.G.uX`._.j.q U ' ' ' ' ) W ' ' ` ' ' W ( ' ` ' ' ) W ` ' ` ' ` ",
"( ' ' ' ` ' ` ` ' ` ` ' ' ( ' ' ` ` ' ( ' ' ' ) ' ` ) T [.=XoXoX XP.uXK.J. X0X#.' ' ' ' ' ( ' ' ` ' ' ( ' ' ' ` ' ` ) ' ' ` ` ' ",
"` ' ( W ' ' ' ' _ W ` ' ! V / ! ( ' ' ` ' ( I ^ ' T c.&X*X&X*X*X&XG.uXJ.iX=X|.8 ) W ) ' ' ' ' ! ! ` ' ` ' ) W ' ' ' ' ' W ) ` ' ",
"' ' ` ) ' ` ' ' ' _ ' ` U 0XtX%.U ' ' ' ' ' W =X=X&X=X&X=X*X*X=X*X{.H. XXX_.`.5.T ~ Q Q T ' ' ( ` ' ' ' ' ' ) ' ` ' ' ' ( ' ' ' ",
"` ' ' ' ' ' ` ' ' ` ` ' U L.oXyXiX X9 ^ %.%.oX=X=X&X&X&X&X*X9X9X9X[.d.L.`._.7.|.9X=XoXoX#.' ' ' ' ` ' ` ' ' ' ` ' ` ' ` ' ` ' ' ",
"' ' ' ! ( ' ' ' ' ` ~ ` T l.`.`.OXiX|.K.=XOX'.z.r.t.-X*X*X9X9X9X*XA.A.Z.G.P.;XqXqXqX*X*X%.Q ` ( W _ ` ` ` ' ~ 6 %.' ' ` ' E ) ' ",
") ) ' ' ' ' ) ) ' U P R 5.P.J.G._.0X-XK.=XOXe.,.:.e._.*X9X9XqXqX*X(.$XwXwXwXwXwXwXwXqXqXqX9XoX%.' ' ' _ 8 l.=XiX|.Q ) ' ' ' ` ' ",
"E ' ' ' ' ' ( ( ' $.iXiXyXyXiX|.G.`.K.OX=XoXoXF.yXP. X*XqXqXwXwXwXeXeXpXeXeXeXeXeXwXwXwXqXqXqX*XL.T _ $.uXuX-X}.j.P W ' ' ` ' ' ",
"` ' ) ) ` ' ' ' ` %.F._.`.`.}.-XF.k.7.K.[.=X=XC.}.uXiX|.].wXwXeXeXeXeXsXsXsXsXsXsXsXeXeXwXqXqX*X=XoX`.P.iX X_._.7.' ` ` ) ) ' ` ",
"' ' W W ' ` ' ' Q x.7.L._._._._.j.P.,.,.,.r.&XJ._.`.OXiX-X#XfXeXsXsXsXdXsXdXdXdXsXsXsXsX*XR.T.A.f.*X*X_.}._._.L.V ' ' ' W ' ' ' ",
"` ' ' ' ' ' ) 9 }.OX_.6.6.6.6.7.[.Z.,.q.q.r.*XJ.H.`._.-XyXP.sXsXsXdXdXdXhXdXhXdXdXsXsXsX(.Q.R.T.$X9X9XF.J.F.j.3.Q ' ' ` ' ' ' ' ",
"' ' ' ) ) ' ' 1 l } t._.[.OXXX-XoXoXOX_.L.oX*X*X6.L._.[.}.%XsXgXdXhXhXhXjXdXhXdXhXdXdXsXwX@X+X9XqXqXqX$XG.e.r.q.U ' ' ' ` ( ` ` ",
"' ' ' ) ) ` ' 9 X.| k | t.}.oXoXoXoXoX=X=X&X*X9X*X7.8.F.j.eXsXsXsXhXjXjXjXjXjXjXjXhXhXdXsXsXeXwXqXqX=XT.d.s.t.e.U ' ` ` ' ( ` ' ",
"J ` ' ' _ _ ~ c n v j s j n Z.=XOX}.oXoX=X&X*X*X9X.XR.S..XeXeXgXgXsXgXhXjXjXjXlX7XW.%XP.6XsXsX6X$XR.f.d.d.s.t.q.U ) W ` ' ` ' ' ",
") ' ` ' U | q 1 s s s s j k n ,.q.,.}.oX=X&X*X*X9XqXqXwXeXeXeXsXgXgXgXgXdXlXlXfX#XuXuXJ.dXsX@XQ.R.T.f.f.d.s.;.<.9 _ ` ' ' ` ' ' ",
"' ' W W U 3.z.:.d : s s s j n ;.:.F.'.K.{.*X9X9XqXqXrXeXeXeXgXgXgXeX7X7XsX6XlX#XiX}._.F.2X$X(.Y.R.R.Z.d.d.;.I.,X,Xy.Q ` E ( ' ' ",
"' ' ' ` ! m 3.h.k.s : s s j k n  XiXtXL.j..X9X9X9XwXwXeXeXgXgXhXgX<X<X3X3XhXjX;XOX`.S.7.+X(.(.Q.E.T.A.f.e.;.q.s.a.,Xg.Q ) ' ' ' ",
"' ' ` ' _ 5 =.2.k.g > : s j j &.iX=XK.tX[.:.r..X9XqXrXeXeXgXgXhXhX8X3X8XhXjXgX@XG.j.C.#X+X+X(.Q.R.R.A.f.t.N >.q.,.r.:Xg.q ` ' ' ",
"' ' ' ! ( 6 f &.3.b : s s s s G.iXL.tXXX_.5.O.+.g..XwXeXeXgXhXhXjXkXkXkXaX8X<X:X4X7X5X+X+X(.(.Y.$XW.R.R.d.<.N >.,.,.,...Q E ` ' ",
"( ) ' ' ` ` Q < f : : : s s j -XtXH.iX`._.=.O.+.9.0.g././.rXgXhXjXjXaX8X3X3X>X).+X6X5X5X+X+XW.@X;X;X%X'.d.>.>. .N x 3 _ ' ' ' ' ",
"W ` ' ' ' ` ( , : * : : : s b tXK.l.qX_.F.-.O.+.9.0.T.E.!.).gXeX8X3X3X3X3X3X<X6XpXpXpXpX+XR.Z.%X;X@X#Xd.t.q.q.>.U ` ( ' ' ` ' ' ",
"` ' ) ( ' ' ' 1 : * : : : s d k N =.F.=.o.{ O.+.9.u.A.E.b.v.b.).<X<X<X<X3X<X).+X5XwXfX@X-.D.Y.t.%X[.z.s.r.,.,.,.U ' ' ' ( ( ' ' ",
"' ' _ ( ' ` ' 1 & * > j : s s s j ;.,.X.[ { O.O.+.9.0.u.i.p.v.).I.,.q.r.<./.)././.!.(.S.;.q.Y.U.A.A.f.s.r.,.,.,.U ' ' ` E ` ' ' ",
"' ' ' ' ' ' ` 4 & > z c s : s s ..>.,.q.[ { O.O.+.9.9.0.u.i.p.!.9.;.r.>X:XA.!.!.E.E.Q.t.-.-.q.,Xr.Z.d.s.r.q.q.,.U ' ' ' ' ' ' ' ",
"' ` ' ( ! ' ' < b h.H.*.s : : j | X.,.} [ [ { O.+.+.9.0.0.u.i.!.d.;.,.q.:Xa.!.!.E.U.e.q.^.:X;.^.y.f.s.r.r.>.,.,.U ' ' ' ' E ' ' ",
"` ` ' ' ` ` 9 l.k.5.4.4.N = : s s s n n n [ { { O.+.9.9.0.0.u.E.A. .q.,.U.D.E.E.T.T.,.<.q.~.a.q.,.d.d.t.r.,.,.,.U ` ` ` ' ` ' ' ",
"E ` ' ` ' ' ; f &.*.=.N f : : : s w.Y.q.o.n [ { { O.+.+.9.9.0.U.E.-.;.,.f.Y.A.U.T.f.e.;.q.a.I.Z.d.Z.{.].e.q.,.,.( ( E ` ' ' ' ' ",
"` ' ' ` ' ' _ , & w = = * : : s Z.,X^.I.,.M n [ { O.O.O.+.9.9.f.T.d.o. .<.:XC.$X#XW.Q.N <.r.^.e.r.f.{.{.P.e.,.,.#.#.K ' ' ` ' ' ",
"` ' W W ' ' ` 0 $ % % * * * : <.,Xa.q.,.>.b n [ [ { O.O.O.+.9.f.f.f.T.t.t.Z.P.%X%X#XZ.f.;.*.e.,.r.y.J.J.Z.e.,.,...#.Q ` I ( ' ' ",
"' ' ' ` ' ` Q > % % % % * * j :XU.,.;.<.<.N n n [ [ { { +.O.O.d.f.f.f.f.f.f.T._.K.s.r.r.r.r.r.r.r.r.q.e.q.,.,.q.` ` ' ' ' ' ' ` ",
"` ' ' ` ` ' 6 * # % % * * : e.I.q.*.~.:Xt.;.n n n n n ,.r.q.O.t.s.s.s.s.l.r.e.q.,.q.q.r.r.r.r.r.q.q.q.q.q.*.&.o.7 U P U ` ) ` ' ",
"' ` ` U Y q 2 & # % % % % * : d b ;.,Xs.q.;.b n n [ >.X.;.<.-.q.r.r.q.,.,.,.,.,.q.>.q.r.q.q.q.q.q.q.q.q.-.Y.,X,X,X,X~.U ' ! ` ' ",
"E ` ` 8 l.z.k.Z.M # % % % * * j v ;.^.q.q.o.b n n [ } o.e.:X,Xq.e.e.,.,.,.,.,.q.>.q.>.q.q.r.r.L.q.q.,.>.t.>Xb.s.d.r.b ' ' ' ` ' ",
"( ' ' _ B 3.2.5.l.f * % % * * c c y.^.q.,.M n n n n n  .,.q.~.I.,.,.q.,.,.,.,.,.,.,.q.q.q.q.K.'.L.q.,.;.t.r.q.X.*.>.0 ' ' ' ' ' ",
"` ' ( Y 4 m &.2.=.g < * % * * * * y.U.<.N d j n n n n b ,.,.s.,X;.,.,.,.,.,.,.,.,.,.,.q.q.q.K.'.'.k.,.X.>.q.*.I.Y.y.P ` W _ ' ' ",
"' ' _ 4 l.3.C m C g * % % % & * : } x d s s s l n n n b -.,.,.>Xq.,.,.[ [ >.,.,.q.,.,.,.,.,.q.h.z.k.,.>. .M s.~.I.:X^.#.~ ` ` ' ",
"` ' ' _ 2 m N N g % # # % % % * * * : : : s s j k n n n b N ;.a.y.<.;.l l l ..,.>.q.,.,.,.,.q.>.,.,.>.,.>. .q.,.,.,.I.:Xe.! ' ' ",
"' ' ' ( W ! q < + # # # # % % & * * : : : > s s k k n n n n n ;.;.x N N [ ,.,.q.,.>.>.>.>.>.>.w.>.>.;.>.>.*.M ,.q.,.q.X.q ~ ` ` ",
"( ` ' ' ' ' ` , + + # # # % % & * * * : : s j [ | k k n l n l ,.q.f =.H.&.,.,.>.>.>.>.>.>.>.@.@.@.@.,.H.k.,.:. .N N h U ` ' ` ' ",
"E ' ' ' ' ' ( , # + + # # % % * : < * : : s | ..X.k k l n n n q.,.b 2.5.k.;.h.<.>.@.@.@.@.@.@.@.X.@.h.k.h.;.,.,.` ( W ' ' ' ' ' ",
"` ' ) ) ' ' ` / 3 # # + # # % < > z * * : s v | n j j k l n n q.,.m 2.&.z.1.H.F.@.@.@.@.X.@.....X...@.;.....7 ( ' ' ' ` ) ) ' ` ",
"' ' W W ' ' ' ' ` , k : # # & > 1 h  . .h d : s s s j k l n n ,.,.>.g 2.z. .j.k.,.......| *.:. .| | | ;.@.P E ' ' ' ' ' W ' ' ' ",
"' ' ' ' ` ' ` ' U 1 , Q k > : % d k.H.k.1.N : > s s j j j l n [ ;.,.X.x :.x ;.l.X...| |  .r.>X~.| 6 P ,.K _ ' ' ' ' ' ` ' ' ` ' ",
"' ' ` ) _ ' ' ' ' ` ( ' 1 7 ^ g k.l.3.2.&.m f f > s j k ;.[ n n l ..| | ] ] | ..| | ] | M >.q.>X6 ) ` ! ' ` ) ( ' ' ' ' ` ( ` ` ",
"' ` ' ` ) ` ` ` ` ` ( ` ' ( 4 t.h.=.2.N  .5.1.N f > s [ @.o.l @.[ v | | ] ] ] v v v M >.:XY.>.~.#.` ` ` ' ` ` ( ' ' ` ` ' ( ` ' ",
"J ' ' ' ' ' W W ' ' ' ' ` 3 M *.2.2.2.N L.h.4.2.w s d | [ l l ,.| v ] x ] x v c x v h ,.t.>Xy.a.>.' ' E ( ' ' ' ' ) W ' ' ' ' ' ",
") ' ` ' ` ' ' ` ' ' ` ' ' ) _ 6 - f w k.h.2.2.&.= s > s j j k ;.c c c c c c c v V ! 6 ,.,.b.w.6 P ( ` ) ' ` ' ` ' ` ` ' ' ` ' ' ",
"` ' W W ' ` ' ' ) E ' ' ' ' ' E ! ` 9 z.4.2.2.m 0 z j s s d k X.z z c z c ..8 8 @.L ! N ,.d.E.E ( ' ' ` ` ( W ' ' ' ' ' E ) ' ' ",
"' ' ' ` ' ` ` ' ' ) ' ' ' ' ' ' ' _ ;.h.2.2. .- ' ` K d l l l n k X.;.N 5 K P ' ! ( ' U 4 9 ..U ) ` ' ' ` ' ) ' ` ' ' ' ) ' ` ' ",
"' ' ) ' ) ' ' ' ' ' ) ' ' ` ' ` ` 3 l.2.N B - I ' ' ` X . w n n l C a O q ' ' ' ` ' ` ` ' ` ' ` ' ) ` ' ' ' ' ) ' ' ' ' ` ) ' ' ",
"' ` ' ( ( ' ' ' ' ' E ` ' ' ` ' ! 3 6 2 2 U ) W ` ` ` -     X C C a p y q ` ' ' ` ' E ` ' ' ` ' ( ) ` ` ` ` ` W ' ' ' ) ' E ' ' ",
"( ) ' ' ' ` ( ( ' ' ' ' ` W ' ' ' ' ` ( ) ' ' ' ' ) ( e     X o S a D i P ` ( ( ' ' ' ' ` W ' ' ` ' ` ( ) ' ' ' ' ) ( ' ' ' ' ' ",
"W ` ' ' ' ' ( ( ' ' ` ' ` ( ' ' ' ' ' ! ` ' ' ' ' ` ( e X   o i M.D F A 5 ' ( _ ' ' ` ' ` ( ' ' ` ' ' ( ) ' ' ' ' ` ( ' ' ' ' ' ",
"` ' ) ( ' ' ` ' ) ( ) ' ' ` ' ( _ ' ' ' ' ( ( ' ' ` ' e X X u S N.m.F F 4 ' ' ' ) ( ) ' ' ` ' ( ( ' ' ' ' ( ( ' ' ` ' ' ( ( ' ' ",
"' ' ) ( ' ' ' ' ' W ' ' ' ' ' ! ) ' ' ' ' ' W ' ` ' ` e o o u A F V.B.n.e ' ' ' ' W ' ' ' ' ' ! ) ' ' ' ' ` W ' ` ' ` ' E ` ' ' ",
"' ' ' ' ` ' ' ' ' ' ' ' ' ` ' ' ' ' ' ' ' ' ' ' ' ` ' e y O u F H B.B.m.a ' ` ' ' ' ' ' ` ` ' ` ' ' ' ' ' ' ' ` ' ` ' ' ' ' ' ' ",
"' ' ' ( ! ' ' ` ' ` E ' ' ' ' ' ! _ ' ' ' ' ( W ' ' ` t y y i G H V.B.F p ' ' ' ' ' E ' ' ' ' ' ( ) ' ' ' ' ( W ' ` ' ' ' ~ ' ' ",
"` ` ' ' ` ' ' ` ` ' ` ` ' ) ` ' ' ) ' ' ` ' ' _ ` ` ` u u u i H H m.M.F p ` ' ` ` ' ` ` ` ) ' ' ' ) ' ' ` ' ' ) ` ` ` ) ' ' ' ' ",
"E ) ' ' ' ' W ! ' ' ' ' ` J ' ' ' ' ' E _ ` ' ` ` / ! O u i p D G M.F S r ` W ! ' ' ` ' ) E ' ' ' ' ' E ( ' ' ` ' ! W ' ' ' ' ' ",
"' ' ' ) ` ' ` ' ' ` ) ' ' ` ' ' ' ' ' ' ' ' _ ` ' ' ' q u p A S A D D B ( ' ' ' ' ` ` ' ' ' ' ` ` ' ' ' ' ' ) ` ' ` ' ' ' ` ' ' ",
"' ' W W ' ' ' ` ) E ` ' ' ` ' E W ' ' ' ' ( ! ' ` ' ' ' ; 5 r e e 5 Y W ' ' ' ` ) E ) ` ' ' ' E W ` ' ' ` ( W ' ` ' ` ' J ( ' ' "
};
